<svg width="16" height="16" viewBox="0 0 16 16" fill="none" xmlns="http://www.w3.org/2000/svg">
<path fill-rule="evenodd" clip-rule="evenodd" d="M14.7202 10.8223C13.676 10.8223 12.6735 10.6552 11.7379 10.3461C11.4455 10.2542 11.1197 10.321 10.8858 10.5466L9.0479 12.3845C6.68374 11.1815 4.74563 9.25173 3.54267 6.87922L5.38053 5.03301C5.61444 4.81581 5.68127 4.49001 5.58938 4.19762C5.28028 3.26198 5.1132 2.25951 5.1132 1.21527C5.1132 0.755809 4.73728 0.379883 4.27781 0.379883H1.35395C0.894481 0.379883 0.518555 0.755809 0.518555 1.21527C0.518555 9.05959 6.87588 15.4169 14.7202 15.4169C15.1797 15.4169 15.5556 15.041 15.5556 14.5815V11.6577C15.5556 11.1982 15.1797 10.8223 14.7202 10.8223ZM13.8848 7.8984H15.5556C15.5556 3.74651 12.189 0.379883 8.03707 0.379883V2.05066C11.27 2.05066 13.8848 4.66544 13.8848 7.8984ZM10.5432 7.8984H12.214C12.214 5.59272 10.3428 3.72145 8.03707 3.72145V5.39223C9.42382 5.39223 10.5432 6.51165 10.5432 7.8984Z" fill="#AFAFAF"/>
</svg>
