<svg width="368" height="718" viewBox="0 0 368 718" fill="none" xmlns="http://www.w3.org/2000/svg">
<g opacity="0.5">
<g opacity="0.2">
<path fill-rule="evenodd" clip-rule="evenodd" d="M161.5 162.406L161.5 37L162.5 37L166.5 37L166.5 160.594L209.5 212.104L209.5 145L195 145L195 113L227 113L227 145L214.5 145L214.5 717.5L209.5 717.5L209.5 219.906L161.5 162.406ZM200 118L200 140L222 140L222 118L200 118Z" fill="#565C5F"/>
<path fill-rule="evenodd" clip-rule="evenodd" d="M162.5 37C172.717 37 181 28.7173 181 18.5C181 8.28271 172.717 -1.25527e-06 162.5 -8.08661e-07C152.283 -3.6205e-07 144 8.28271 144 18.5C144 28.7173 152.283 37 162.5 37ZM162.5 5C169.956 5 176 11.0441 176 18.5C176 25.9559 169.956 32 162.5 32C155.044 32 149 25.9559 149 18.5C149 11.0441 155.044 5 162.5 5Z" fill="#565C5F"/>
</g>
<path opacity="0.2" d="M249 466.5L249 84L254 84L254 466.5L249 466.5Z" fill="#565C5F"/>
<path opacity="0.2" fill-rule="evenodd" clip-rule="evenodd" d="M282 237.517L282 385.5L277 385.5L277 235.483L334.991 175.979C332.492 172.825 331 168.837 331 164.5C331 154.283 339.283 146 349.5 146C359.717 146 368 154.283 368 164.5C368 174.717 359.717 183 349.5 183C345.422 183 341.653 181.681 338.595 179.446L282 237.517ZM363 164.5C363 157.044 356.956 151 349.5 151C342.044 151 336 157.044 336 164.5C336 171.956 342.044 178 349.5 178C356.956 178 363 171.956 363 164.5Z" fill="#565C5F"/>
<path opacity="0.2" fill-rule="evenodd" clip-rule="evenodd" d="M18.5 69C28.7173 69 37 77.2827 37 87.5C37 92.709 34.8471 97.4152 31.3827 100.777L136.754 276.282L136.754 359L131.754 359L131.754 277.668L27.339 103.756C24.7127 105.187 21.7013 106 18.5 106C8.28272 106 -1.1421e-05 97.7173 -1.18676e-05 87.5C-1.23143e-05 77.2827 8.28272 69 18.5 69ZM18.5 74C25.9558 74 32 80.0442 32 87.5C32 94.9558 25.9558 101 18.5 101C11.0441 101 4.99999 94.9558 4.99999 87.5C4.99999 80.0442 11.0441 74 18.5 74Z" fill="#565C5F"/>
</g>
</svg>
