<svg width="216" height="42" viewBox="0 0 216 42" fill="none" xmlns="http://www.w3.org/2000/svg">
<path d="M18.6067 7.48889H11.038C11.5655 6.51553 12.0883 5.54975 12.6099 4.58605L12.6158 4.57513C13.12 3.64373 13.6232 2.71392 14.1286 1.78141L14.8237 0.5C16.097 2.85393 17.3374 5.14618 18.6067 7.48889Z" fill="url(#paint0_linear)"/>
<path d="M29.961 37.7397C29.6312 40.0768 28.0137 41.5167 25.8876 41.4999C24.9511 41.4831 24.0499 41.1155 23.3418 40.4615C22.6336 39.8074 22.1636 38.9085 22.0138 37.922C21.6972 35.7896 22.7865 33.8562 24.7207 33.1426C24.9835 33.0473 25.0624 32.9281 25.0598 32.6337C25.052 31.8514 25.0519 29.3497 25.0517 26.8137V26.8126C25.0515 24.1728 25.0514 21.496 25.0427 20.6816C25.0404 20.5936 25.021 20.507 24.9857 20.4274C24.9504 20.3477 24.9 20.2768 24.8377 20.219C21.8995 18.1973 18.9557 16.1878 16.0062 14.1905C15.9706 14.1658 15.9325 14.1449 15.8829 14.1179C15.8537 14.102 15.8205 14.0838 15.7815 14.0615V21.9911C16.0995 22.1493 16.3784 22.3845 16.5961 22.6781C16.8138 22.9717 16.9642 23.3155 17.0353 23.6821C17.1064 24.0487 17.0962 24.428 17.0056 24.7897C16.915 25.1513 16.7464 25.4854 16.5134 25.7652C16.2599 26.0834 15.926 26.317 15.5515 26.4382C15.0904 26.579 14.602 26.5829 14.1389 26.4494C13.6676 26.2936 13.2584 25.9747 12.9759 25.5431C12.6935 25.1115 12.5539 24.5918 12.5792 24.066C12.5945 23.6194 12.7264 23.1861 12.9603 22.8153C13.1941 22.4444 13.5204 22.1507 13.9024 21.9672V18.5145C13.6848 18.6645 13.4756 18.8048 13.2715 18.9417C13.1081 19.0512 12.948 19.1586 12.7894 19.2671C10.1666 21.0551 7.54335 22.8417 4.91969 24.6269C4.82535 24.6758 4.7469 24.7538 4.69445 24.8508C4.64199 24.9477 4.61793 25.0592 4.62535 25.1708C4.63444 26.3469 4.63096 28.1602 4.62795 29.7288C4.6266 30.4284 4.62535 31.0793 4.62535 31.6034C4.62535 31.6624 4.63201 31.7214 4.64039 31.7957C4.64436 31.8309 4.64872 31.8695 4.65294 31.9132H7.35851V39.784H0V31.9202H2.77126V24.0422C2.76228 23.9504 2.77926 23.8578 2.82 23.7764C2.86075 23.6949 2.92341 23.6283 2.99991 23.5852C6.51535 21.1981 10.0282 18.8077 13.5383 16.414C13.6298 16.3641 13.7102 16.2938 13.7741 16.208C13.8328 16.1291 13.8764 16.0388 13.9024 15.9422V9.99992C13.905 9.91266 13.8966 9.82543 13.8774 9.74056V7.49739L15.767 7.5086V11.6893L17.9207 13.1488L18.0521 13.2357C20.8676 15.1555 23.6857 17.0739 26.5065 18.9908C26.6254 19.0589 26.7232 19.1623 26.7883 19.2884C26.8534 19.4145 26.8828 19.5581 26.8731 19.7016C26.8731 20.3859 26.8767 21.9934 26.8808 23.8611L26.8808 23.8639C26.8882 27.1962 26.8974 31.355 26.8915 32.5748C26.8915 32.9267 26.9848 33.0669 27.3041 33.1819C28.1782 33.4876 28.9235 34.112 29.4093 34.9454C29.8951 35.7788 30.0905 36.7681 29.961 37.7397Z" fill="url(#paint1_linear)"/>
<path d="M56.1406 21.3594C56.7578 21.9062 57.0664 22.6797 57.0664 23.6797V32H57.9102V23.6797C57.9102 22.4375 57.5195 21.4648 56.7383 20.7617C55.9648 20.0508 54.9492 19.6953 53.6914 19.6953C52.5508 19.6953 51.6016 20.0703 50.8438 20.8203C50.0859 21.5703 49.707 22.4844 49.707 23.5625C49.707 24.2578 49.8242 24.875 50.0586 25.4141C50.3008 25.9453 50.625 26.3672 51.0312 26.6797C51.4375 26.9844 51.8867 27.2148 52.3789 27.3711C52.8789 27.5195 53.4102 27.5938 53.9727 27.5938C54.8477 27.5938 55.6641 27.3945 56.4219 26.9961V26.1523C55.6875 26.5898 54.875 26.8086 53.9844 26.8086C53.6172 26.8086 53.2695 26.7734 52.9414 26.7031C52.6211 26.6328 52.3125 26.5195 52.0156 26.3633C51.7188 26.1992 51.4609 25.9961 51.2422 25.7539C51.0312 25.5039 50.8633 25.1953 50.7383 24.8281C50.6133 24.4531 50.5508 24.0312 50.5508 23.5625C50.5508 22.7344 50.8594 22.0234 51.4766 21.4297C52.0938 20.8359 52.832 20.5391 53.6914 20.5391C54.707 20.5391 55.5234 20.8125 56.1406 21.3594Z" fill="url(#paint2_linear)"/>
<path d="M59.5977 32V23.6797C59.5977 22.5469 59.3398 21.5469 58.8242 20.6797C58.3086 19.8125 57.6055 19.1523 56.7148 18.6992C55.8242 18.2383 54.8164 18.0078 53.6914 18.0078C52.0898 18.0078 50.7422 18.5508 49.6484 19.6367C48.5625 20.7148 48.0195 22.0234 48.0195 23.5625C48.0195 24.4688 48.1797 25.2891 48.5 26.0234C48.8203 26.75 49.2539 27.3438 49.8008 27.8047C50.3477 28.2578 50.9688 28.6055 51.6641 28.8477C52.3594 29.082 53.0938 29.1992 53.8672 29.1992C54.7266 29.1992 55.5781 29.0234 56.4219 28.6719V27.7812C55.6172 28.1953 54.7695 28.4023 53.8789 28.4023C53.2227 28.4023 52.5977 28.3047 52.0039 28.1094C51.418 27.9062 50.8867 27.6133 50.4102 27.2305C49.9336 26.8477 49.5547 26.3398 49.2734 25.707C49 25.0742 48.8633 24.3594 48.8633 23.5625C48.8633 22.25 49.3242 21.1367 50.2461 20.2227C51.168 19.3086 52.3164 18.8516 53.6914 18.8516C55.1758 18.8516 56.3906 19.2891 57.3359 20.1641C58.2812 21.0312 58.7539 22.2031 58.7539 23.6797V32H59.5977Z" fill="url(#paint3_linear)"/>
<path d="M61.2852 32V23.6797C61.2852 22.2422 60.9531 20.9609 60.2891 19.8359C59.625 18.7109 58.7148 17.8438 57.5586 17.2344C56.4102 16.625 55.1211 16.3203 53.6914 16.3203C52.668 16.3203 51.6992 16.5117 50.7852 16.8945C49.8711 17.2773 49.0898 17.793 48.4414 18.4414C47.793 19.0898 47.2773 19.8594 46.8945 20.75C46.5195 21.6406 46.332 22.5781 46.332 23.5625C46.332 24.9453 46.6719 26.1953 47.3516 27.3125C48.0312 28.4297 48.9375 29.293 50.0703 29.9023C51.2031 30.5117 52.4453 30.8164 53.7969 30.8164C54.6562 30.8164 55.5312 30.6484 56.4219 30.3125V29.457C55.5703 29.8242 54.7031 30.0078 53.8203 30.0078C52.9531 30.0078 52.1211 29.8633 51.3242 29.5742C50.5352 29.2773 49.8281 28.8633 49.2031 28.332C48.5859 27.8008 48.0938 27.125 47.7266 26.3047C47.3594 25.4766 47.1758 24.5625 47.1758 23.5625C47.1758 22.3984 47.457 21.3281 48.0195 20.3516C48.5898 19.375 49.375 18.6016 50.375 18.0312C51.375 17.4531 52.4805 17.1641 53.6914 17.1641C54.9648 17.1641 56.1133 17.4297 57.1367 17.9609C58.1602 18.4922 58.9648 19.2578 59.5508 20.2578C60.1445 21.25 60.4414 22.3906 60.4414 23.6797V32H61.2852Z" fill="url(#paint4_linear)"/>
<path d="M62.9727 32V23.6797C62.9727 22.3438 62.7344 21.1094 62.2578 19.9766C61.7812 18.8438 61.1289 17.8906 60.3008 17.1172C59.4727 16.3359 58.4883 15.7266 57.3477 15.2891C56.207 14.8516 54.9883 14.6328 53.6914 14.6328C52.418 14.6328 51.2148 14.8711 50.082 15.3477C48.957 15.8164 47.9961 16.4531 47.1992 17.2578C46.4102 18.0547 45.7852 19.0039 45.3242 20.1055C44.8711 21.1992 44.6445 22.3516 44.6445 23.5625C44.6445 24.6172 44.8086 25.6172 45.1367 26.5625C45.4648 27.5078 45.918 28.3359 46.4961 29.0469C47.0742 29.75 47.7422 30.3633 48.5 30.8867C49.2656 31.4023 50.0938 31.793 50.9844 32.0586C51.8828 32.3242 52.8047 32.457 53.75 32.457C54.6641 32.457 55.5547 32.3047 56.4219 32V31.1328C55.5938 31.4844 54.7188 31.6602 53.7969 31.6602C52.9609 31.6602 52.1367 31.5391 51.3242 31.2969C50.5195 31.0547 49.7656 30.6992 49.0625 30.2305C48.3672 29.7617 47.75 29.207 47.2109 28.5664C46.6797 27.918 46.2578 27.1641 45.9453 26.3047C45.6406 25.4375 45.4883 24.5234 45.4883 23.5625C45.4883 22.1016 45.8477 20.7539 46.5664 19.5195C47.2852 18.2773 48.2734 17.293 49.5312 16.5664C50.7891 15.8398 52.1758 15.4766 53.6914 15.4766C55.2695 15.4766 56.6992 15.8203 57.9805 16.5078C59.2617 17.1875 60.2734 18.1562 61.0156 19.4141C61.7578 20.6641 62.1289 22.0859 62.1289 23.6797V32H62.9727Z" fill="url(#paint5_linear)"/>
<path d="M71.4805 20.1875H72.8984C74.1172 20.1875 75.1719 20.4609 76.0625 21.0078C76.9609 21.5547 77.6289 22.2695 78.0664 23.1523C78.5039 24.0273 78.7227 25.0078 78.7227 26.0938C78.7227 26.9141 78.5703 27.6797 78.2656 28.3906C77.9688 29.1016 77.5391 29.7266 76.9766 30.2656C76.4219 30.8047 75.7109 31.2305 74.8438 31.543C73.9844 31.8477 73.0195 32 71.9492 32C70.582 32 69.2969 31.8047 68.0938 31.4141C66.8984 31.0156 65.9023 30.457 65.1055 29.7383L64.4258 30.2422C65.3008 31.0625 66.3945 31.6992 67.707 32.1523C69.0273 32.6133 70.4414 32.8438 71.9492 32.8438C72.9102 32.8438 73.8008 32.7266 74.6211 32.4922C75.4492 32.2656 76.1602 31.9492 76.7539 31.543C77.3555 31.1289 77.8672 30.6406 78.2891 30.0781C78.7188 29.5156 79.0391 28.8984 79.25 28.2266C79.4609 27.5547 79.5664 26.8438 79.5664 26.0938C79.5664 25.1719 79.4219 24.3086 79.1328 23.5039C78.8438 22.6914 78.4258 21.9766 77.8789 21.3594C77.332 20.7344 76.6328 20.2422 75.7812 19.8828C74.9375 19.5234 73.9883 19.3438 72.9336 19.3438H71.4805C71.1445 19.3438 70.9141 19.2695 70.7891 19.1211C70.6641 18.9727 70.6016 18.7656 70.6016 18.5C70.6016 18.2344 70.7148 18.0273 70.9414 17.8789C71.1758 17.7305 71.6289 17.6562 72.3008 17.6562C73.6758 17.6562 74.6367 17.7812 75.1836 18.0312L75.8633 17.5156C75.0664 17.0469 73.8789 16.8125 72.3008 16.8125C70.6211 16.8125 69.7812 17.375 69.7812 18.5C69.7812 19.0078 69.9141 19.418 70.1797 19.7305C70.4453 20.0352 70.8789 20.1875 71.4805 20.1875Z" fill="url(#paint6_linear)"/>
<path d="M72.8164 21.0312H71.4805C70.5664 21.0312 69.9062 20.8008 69.5 20.3398C69.1016 19.8789 68.9023 19.2656 68.9023 18.5C68.9023 17.7422 69.1719 17.1328 69.7109 16.6719C70.2578 16.2031 71.1211 15.9688 72.3008 15.9688C74.1289 15.9688 75.5312 16.3047 76.5078 16.9766L77.1758 16.4609C76.6211 16.0312 75.918 15.7031 75.0664 15.4766C74.2148 15.2422 73.293 15.125 72.3008 15.125C70.8867 15.125 69.8242 15.4375 69.1133 16.0625C68.4102 16.6875 68.0586 17.5 68.0586 18.5C68.0586 19.5 68.3438 20.3125 68.9141 20.9375C69.4844 21.5625 70.3398 21.875 71.4805 21.875H72.8047C74.1641 21.875 75.207 22.2734 75.9336 23.0703C76.668 23.8672 77.0352 24.875 77.0352 26.0938C77.0352 27.3281 76.5977 28.3398 75.7227 29.1289C74.8555 29.918 73.5977 30.3125 71.9492 30.3125C70.832 30.3125 69.7852 30.168 68.8086 29.8789C67.8398 29.5898 67.0352 29.1836 66.3945 28.6602L65.7383 29.1875C66.457 29.8125 67.3594 30.2969 68.4453 30.6406C69.5312 30.9844 70.6992 31.1562 71.9492 31.1562C73.8242 31.1562 75.2812 30.6797 76.3203 29.7266C77.3594 28.7656 77.8789 27.5547 77.8789 26.0938C77.8789 24.6562 77.4297 23.4531 76.5312 22.4844C75.6406 21.5156 74.4023 21.0312 72.8164 21.0312Z" fill="url(#paint7_linear)"/>
<path d="M72.7695 22.7188H71.4805C70.1055 22.7188 69.0508 22.3242 68.3164 21.5352C67.582 20.7383 67.2148 19.7266 67.2148 18.5C67.2148 17.2656 67.6484 16.2539 68.5156 15.4648C69.3906 14.6758 70.6523 14.2812 72.3008 14.2812C73.418 14.2812 74.4609 14.4258 75.4297 14.7148C76.3984 15.0039 77.2031 15.4102 77.8438 15.9336L78.5 15.4062C77.7812 14.7812 76.8789 14.2969 75.793 13.9531C74.7148 13.6094 73.5508 13.4375 72.3008 13.4375C70.4258 13.4375 68.9688 13.918 67.9297 14.8789C66.8906 15.832 66.3711 17.0391 66.3711 18.5C66.3711 19.9609 66.8203 21.1719 67.7188 22.1328C68.625 23.0859 69.8789 23.5625 71.4805 23.5625H72.7578C73.6719 23.5625 74.332 23.7969 74.7383 24.2656C75.1445 24.7266 75.3477 25.3359 75.3477 26.0938C75.3477 26.8516 75.0742 27.4648 74.5273 27.9336C73.9883 28.3945 73.1289 28.625 71.9492 28.625C70.1133 28.625 68.707 28.2891 67.7305 27.6172L67.0625 28.1328C67.6172 28.5625 68.3203 28.8945 69.1719 29.1289C70.0312 29.3555 70.957 29.4688 71.9492 29.4688C73.3633 29.4688 74.4219 29.1562 75.125 28.5312C75.8359 27.9062 76.1914 27.0938 76.1914 26.0938C76.1914 25.1094 75.9062 24.3008 75.3359 23.668C74.7656 23.0352 73.9102 22.7188 72.7695 22.7188Z" fill="url(#paint8_linear)"/>
<path d="M72.7695 24.4062H71.4805C70.2305 24.4062 69.1484 24.1406 68.2344 23.6094C67.3203 23.0703 66.6406 22.3594 66.1953 21.4766C65.75 20.5938 65.5273 19.6016 65.5273 18.5C65.5273 17.6797 65.6758 16.9141 65.9727 16.2031C66.2773 15.4922 66.707 14.8672 67.2617 14.3281C67.8242 13.7891 68.5352 13.3672 69.3945 13.0625C70.2617 12.75 71.2305 12.5938 72.3008 12.5938C73.668 12.5938 74.9492 12.793 76.1445 13.1914C77.3398 13.582 78.3359 14.1367 79.1328 14.8555L79.8125 14.3516C78.9375 13.5312 77.8438 12.8945 76.5312 12.4414C75.2188 11.9805 73.8086 11.75 72.3008 11.75C71.3398 11.75 70.4453 11.8672 69.6172 12.1016C68.7969 12.3281 68.0859 12.6484 67.4844 13.0625C66.8906 13.4688 66.3789 13.9531 65.9492 14.5156C65.5273 15.0781 65.2109 15.6953 65 16.3672C64.7891 17.0391 64.6836 17.75 64.6836 18.5C64.6836 19.4375 64.832 20.3125 65.1289 21.125C65.4258 21.9375 65.8516 22.6523 66.4062 23.2695C66.9688 23.8867 67.6836 24.3711 68.5508 24.7227C69.4258 25.0742 70.4023 25.25 71.4805 25.25H72.7461C73.0898 25.25 73.3242 25.3281 73.4492 25.4844C73.582 25.6328 73.6484 25.8359 73.6484 26.0938C73.6484 26.3594 73.5312 26.5664 73.2969 26.7148C73.0703 26.8633 72.6211 26.9375 71.9492 26.9375C70.5664 26.9375 69.6016 26.8125 69.0547 26.5625L68.375 27.0781C69.1719 27.5469 70.3633 27.7812 71.9492 27.7812C73.6289 27.7812 74.4688 27.2188 74.4688 26.0938C74.4688 25.5938 74.3359 25.1875 74.0703 24.875C73.8047 24.5625 73.3711 24.4062 72.7695 24.4062Z" fill="url(#paint9_linear)"/>
<path d="M97.6016 15.125H96.7578L91.4492 26.3047V32H92.293V26.3047L97.6016 15.125Z" fill="url(#paint10_linear)"/>
<path d="M95.9141 15.125H95.0703L89.7617 26.3047V32H90.6055V26.3047L95.9141 15.125Z" fill="url(#paint11_linear)"/>
<path d="M94.2266 15.125H93.3828L88.0742 26.3047V32H88.918V26.3047L94.2266 15.125Z" fill="url(#paint12_linear)"/>
<path d="M92.5391 15.125H91.6953L86.7969 25.4492L81.5703 15.125H80.7266L86.3867 26.3047V32H87.2305V26.3047L92.5391 15.125Z" fill="url(#paint13_linear)"/>
<path d="M83.2695 15.125H82.4258L87.0312 24.0078L87.4531 23.082L83.2695 15.125Z" fill="url(#paint14_linear)"/>
<path d="M84.9688 15.125H84.1133L87.8633 22.1562L88.2969 21.2305L84.9688 15.125Z" fill="url(#paint15_linear)"/>
<path d="M86.668 15.125H85.8242L88.7188 20.3164L89.1406 19.3906L86.668 15.125Z" fill="url(#paint16_linear)"/>
<path d="M111.512 23.6562L112.355 25.1914V15.125H111.512V23.6562Z" fill="url(#paint17_linear)"/>
<path d="M113.199 26.6797L114.043 28.1094V15.125H113.199V26.6797Z" fill="url(#paint18_linear)"/>
<path d="M103.262 23.4688L102.418 21.9336V32H103.262V23.4688Z" fill="url(#paint19_linear)"/>
<path d="M101.574 20.4453L100.73 18.8984V32H101.574V20.4453Z" fill="url(#paint20_linear)"/>
<path d="M102.008 15.125H101.023L110.797 32H111.781L102.008 15.125Z" fill="url(#paint21_linear)"/>
<path d="M104.012 15.125H103.016L112.766 32H113.773L104.012 15.125Z" fill="url(#paint22_linear)"/>
<path d="M105.98 15.125H104.996L114.734 32H115.73V15.125H114.887V30.5352L105.98 15.125Z" fill="url(#paint23_linear)"/>
<path d="M99.8867 32V16.5781L108.816 32H109.789L100.051 15.125H99.043V32H99.8867Z" fill="url(#paint24_linear)"/>
<path d="M129.395 21.4531L130.074 20.9375C129.684 20.4453 129.199 20.0586 128.621 19.7773C128.043 19.4883 127.426 19.3438 126.77 19.3438C125.605 19.3438 124.609 19.7578 123.781 20.5859C122.961 21.4062 122.551 22.3984 122.551 23.5625C122.551 24.7266 122.961 25.7227 123.781 26.5508C124.609 27.3711 125.605 27.7812 126.77 27.7812C127.418 27.7812 128.031 27.6445 128.609 27.3711C129.188 27.0898 129.672 26.7031 130.062 26.2109L129.406 25.6602C129.086 26.0586 128.695 26.3711 128.234 26.5977C127.781 26.8242 127.293 26.9375 126.77 26.9375C125.84 26.9375 125.043 26.6094 124.379 25.9531C123.723 25.2891 123.395 24.4922 123.395 23.5625C123.395 22.6328 123.723 21.8398 124.379 21.1836C125.043 20.5195 125.84 20.1875 126.77 20.1875C127.84 20.1875 128.715 20.6094 129.395 21.4531Z" fill="url(#paint25_linear)"/>
<path d="M130.719 20.3984L131.387 19.8828C130.84 19.1875 130.16 18.6445 129.348 18.2539C128.543 17.8555 127.684 17.6562 126.77 17.6562C125.699 17.6562 124.711 17.9219 123.805 18.4531C122.898 18.9766 122.18 19.6914 121.648 20.5977C121.125 21.5039 120.863 22.4922 120.863 23.5625C120.863 24.6328 121.125 25.6211 121.648 26.5273C122.18 27.4336 122.898 28.1523 123.805 28.6836C124.711 29.207 125.699 29.4688 126.77 29.4688C127.684 29.4688 128.543 29.2734 129.348 28.8828C130.152 28.4844 130.828 27.9414 131.375 27.2539L130.73 26.7148C130.262 27.3086 129.68 27.7773 128.984 28.1211C128.289 28.457 127.551 28.625 126.77 28.625C125.371 28.625 124.176 28.1289 123.184 27.1367C122.199 26.1445 121.707 24.9531 121.707 23.5625C121.707 22.1719 122.199 20.9805 123.184 19.9883C124.176 18.9961 125.371 18.5 126.77 18.5C127.551 18.5 128.285 18.668 128.973 19.0039C129.668 19.3398 130.25 19.8047 130.719 20.3984Z" fill="url(#paint26_linear)"/>
<path d="M132.055 19.3555L132.711 18.8281C132 17.9375 131.125 17.2383 130.086 16.7305C129.055 16.2227 127.949 15.9688 126.77 15.9688C125.738 15.9688 124.754 16.1719 123.816 16.5781C122.879 16.9766 122.07 17.5156 121.391 18.1953C120.719 18.8672 120.18 19.6719 119.773 20.6094C119.375 21.5469 119.176 22.5312 119.176 23.5625C119.176 24.5938 119.375 25.5781 119.773 26.5156C120.18 27.4531 120.719 28.2617 121.391 28.9414C122.07 29.6133 122.879 30.1523 123.816 30.5586C124.754 30.957 125.738 31.1562 126.77 31.1562C127.941 31.1562 129.043 30.9062 130.074 30.4062C131.105 29.8984 131.977 29.2031 132.688 28.3203L132.055 27.7695C131.422 28.5586 130.645 29.1797 129.723 29.6328C128.801 30.0859 127.816 30.3125 126.77 30.3125C125.855 30.3125 124.98 30.1367 124.145 29.7852C123.316 29.4258 122.598 28.9453 121.988 28.3438C121.387 27.7344 120.906 27.0156 120.547 26.1875C120.195 25.3516 120.02 24.4766 120.02 23.5625C120.02 22.6484 120.195 21.7773 120.547 20.9492C120.906 20.1133 121.387 19.3945 121.988 18.793C122.598 18.1836 123.316 17.7031 124.145 17.3516C124.98 16.9922 125.855 16.8125 126.77 16.8125C127.816 16.8125 128.801 17.0391 129.723 17.4922C130.645 17.9453 131.422 18.5664 132.055 19.3555Z" fill="url(#paint27_linear)"/>
<path d="M133.344 18.2773L134.023 17.7734C133.156 16.6875 132.09 15.8359 130.824 15.2188C129.559 14.5938 128.207 14.2812 126.77 14.2812C125.512 14.2812 124.309 14.5273 123.16 15.0195C122.02 15.5117 121.035 16.1719 120.207 17C119.379 17.8281 118.719 18.8164 118.227 19.9648C117.734 21.1055 117.488 22.3047 117.488 23.5625C117.488 24.8203 117.734 26.0234 118.227 27.1719C118.719 28.3125 119.379 29.2969 120.207 30.125C121.035 30.9531 122.02 31.6133 123.16 32.1055C124.309 32.5977 125.512 32.8438 126.77 32.8438C128.207 32.8438 129.555 32.5352 130.812 31.918C132.078 31.293 133.145 30.4414 134.012 29.3633L133.344 28.8477C132.555 29.8242 131.586 30.5938 130.438 31.1562C129.297 31.7188 128.074 32 126.77 32C125.629 32 124.535 31.7773 123.488 31.332C122.449 30.8867 121.551 30.2891 120.793 29.5391C120.043 28.7812 119.445 27.8828 119 26.8438C118.555 25.7969 118.332 24.7031 118.332 23.5625C118.332 22.4219 118.555 21.332 119 20.293C119.445 19.2461 120.043 18.3477 120.793 17.5977C121.551 16.8398 122.449 16.2383 123.488 15.793C124.535 15.3477 125.629 15.125 126.77 15.125C128.074 15.125 129.297 15.4062 130.438 15.9688C131.586 16.5312 132.555 17.3008 133.344 18.2773Z" fill="url(#paint28_linear)"/>
<path d="M135.488 27.7812V28.625H139.707V27.7812H135.488Z" fill="url(#paint29_linear)"/>
<path d="M135.488 29.4688V30.3125H139.707V29.4688H135.488Z" fill="url(#paint30_linear)"/>
<path d="M135.488 31.1562V32H139.707V31.1562H135.488Z" fill="url(#paint31_linear)"/>
<path fill-rule="evenodd" clip-rule="evenodd" d="M146.832 17.6562V26.9375H152.586C153.516 26.9375 154.312 26.4844 154.977 25.5781C155.648 24.6719 155.984 23.5781 155.984 22.2969C155.984 21.0234 155.648 19.9336 154.977 19.0273C154.312 18.1133 153.516 17.6562 152.586 17.6562H146.832ZM152.586 26.0938H147.676V18.5H152.586C153.281 18.5 153.875 18.8711 154.367 19.6133C154.867 20.3477 155.117 21.2422 155.117 22.2969C155.117 23.3438 154.867 24.2383 154.367 24.9805C153.875 25.7227 153.281 26.0938 152.586 26.0938Z" fill="url(#paint32_linear)"/>
<path fill-rule="evenodd" clip-rule="evenodd" d="M145.145 15.9688V28.625H152.586C153.5 28.625 154.352 28.3438 155.141 27.7812C155.93 27.2188 156.555 26.4492 157.016 25.4727C157.484 24.4961 157.719 23.4375 157.719 22.2969C157.719 21.1484 157.484 20.0898 157.016 19.1211C156.555 18.1445 155.93 17.375 155.141 16.8125C154.352 16.25 153.5 15.9688 152.586 15.9688H145.145ZM152.586 27.7812H145.988V16.8125H152.586C153.352 16.8125 154.059 17.0586 154.707 17.5508C155.363 18.0352 155.883 18.6992 156.266 19.543C156.656 20.3867 156.852 21.3047 156.852 22.2969C156.852 23.8047 156.43 25.0977 155.586 26.1758C154.75 27.2461 153.75 27.7812 152.586 27.7812Z" fill="url(#paint33_linear)"/>
<path fill-rule="evenodd" clip-rule="evenodd" d="M143.457 14.2812V30.3125H152.586C153.805 30.3125 154.941 29.957 155.996 29.2461C157.051 28.5273 157.891 27.5508 158.516 26.3164C159.141 25.082 159.453 23.7422 159.453 22.2969C159.453 20.8516 159.141 19.5117 158.516 18.2773C157.891 17.043 157.051 16.0703 155.996 15.3594C154.941 14.6406 153.805 14.2812 152.586 14.2812H143.457ZM152.586 29.4688H144.301V15.125H152.586C153.648 15.125 154.641 15.4453 155.562 16.0859C156.484 16.7266 157.219 17.6016 157.766 18.7109C158.312 19.8125 158.586 21.0078 158.586 22.2969C158.586 23.5938 158.312 24.793 157.766 25.8945C157.219 26.9961 156.484 27.8672 155.562 28.5078C154.648 29.1484 153.656 29.4688 152.586 29.4688Z" fill="url(#paint34_linear)"/>
<path fill-rule="evenodd" clip-rule="evenodd" d="M141.77 32H152.586C153.727 32 154.824 31.7461 155.879 31.2383C156.941 30.7227 157.859 30.0312 158.633 29.1641C159.406 28.2969 160.023 27.2656 160.484 26.0703C160.953 24.8672 161.188 23.6094 161.188 22.2969C161.188 20.5469 160.793 18.9258 160.004 17.4336C159.223 15.9414 158.172 14.7617 156.852 13.8945C155.531 13.0273 154.109 12.5938 152.586 12.5938H141.77V32ZM152.586 31.1562H142.613V13.4375H152.586C153.609 13.4375 154.598 13.6719 155.551 14.1406C156.504 14.6094 157.328 15.2422 158.023 16.0391C158.719 16.8281 159.273 17.7695 159.688 18.8633C160.109 19.957 160.32 21.1016 160.32 22.2969C160.32 23.4922 160.109 24.6406 159.688 25.7422C159.273 26.8359 158.719 27.7773 158.023 28.5664C157.328 29.3555 156.504 29.9844 155.551 30.4531C154.598 30.9219 153.609 31.1562 152.586 31.1562Z" fill="url(#paint35_linear)"/>
<path d="M174.102 21.3594C174.719 21.9062 175.027 22.6797 175.027 23.6797V32H175.871V23.6797C175.871 22.4375 175.48 21.4648 174.699 20.7617C173.926 20.0508 172.91 19.6953 171.652 19.6953C170.512 19.6953 169.562 20.0703 168.805 20.8203C168.047 21.5703 167.668 22.4844 167.668 23.5625C167.668 24.2578 167.785 24.875 168.02 25.4141C168.262 25.9453 168.586 26.3672 168.992 26.6797C169.398 26.9844 169.848 27.2148 170.34 27.3711C170.84 27.5195 171.371 27.5938 171.934 27.5938C172.809 27.5938 173.625 27.3945 174.383 26.9961V26.1523C173.648 26.5898 172.836 26.8086 171.945 26.8086C171.578 26.8086 171.23 26.7734 170.902 26.7031C170.582 26.6328 170.273 26.5195 169.977 26.3633C169.68 26.1992 169.422 25.9961 169.203 25.7539C168.992 25.5039 168.824 25.1953 168.699 24.8281C168.574 24.4531 168.512 24.0312 168.512 23.5625C168.512 22.7344 168.82 22.0234 169.438 21.4297C170.055 20.8359 170.793 20.5391 171.652 20.5391C172.668 20.5391 173.484 20.8125 174.102 21.3594Z" fill="url(#paint36_linear)"/>
<path d="M177.559 32V23.6797C177.559 22.5469 177.301 21.5469 176.785 20.6797C176.27 19.8125 175.566 19.1523 174.676 18.6992C173.785 18.2383 172.777 18.0078 171.652 18.0078C170.051 18.0078 168.703 18.5508 167.609 19.6367C166.523 20.7148 165.98 22.0234 165.98 23.5625C165.98 24.4688 166.141 25.2891 166.461 26.0234C166.781 26.75 167.215 27.3438 167.762 27.8047C168.309 28.2578 168.93 28.6055 169.625 28.8477C170.32 29.082 171.055 29.1992 171.828 29.1992C172.688 29.1992 173.539 29.0234 174.383 28.6719V27.7812C173.578 28.1953 172.73 28.4023 171.84 28.4023C171.184 28.4023 170.559 28.3047 169.965 28.1094C169.379 27.9062 168.848 27.6133 168.371 27.2305C167.895 26.8477 167.516 26.3398 167.234 25.707C166.961 25.0742 166.824 24.3594 166.824 23.5625C166.824 22.25 167.285 21.1367 168.207 20.2227C169.129 19.3086 170.277 18.8516 171.652 18.8516C173.137 18.8516 174.352 19.2891 175.297 20.1641C176.242 21.0312 176.715 22.2031 176.715 23.6797V32H177.559Z" fill="url(#paint37_linear)"/>
<path d="M179.246 32V23.6797C179.246 22.2422 178.914 20.9609 178.25 19.8359C177.586 18.7109 176.676 17.8438 175.52 17.2344C174.371 16.625 173.082 16.3203 171.652 16.3203C170.629 16.3203 169.66 16.5117 168.746 16.8945C167.832 17.2773 167.051 17.793 166.402 18.4414C165.754 19.0898 165.238 19.8594 164.855 20.75C164.48 21.6406 164.293 22.5781 164.293 23.5625C164.293 24.9453 164.633 26.1953 165.312 27.3125C165.992 28.4297 166.898 29.293 168.031 29.9023C169.164 30.5117 170.406 30.8164 171.758 30.8164C172.617 30.8164 173.492 30.6484 174.383 30.3125V29.457C173.531 29.8242 172.664 30.0078 171.781 30.0078C170.914 30.0078 170.082 29.8633 169.285 29.5742C168.496 29.2773 167.789 28.8633 167.164 28.332C166.547 27.8008 166.055 27.125 165.688 26.3047C165.32 25.4766 165.137 24.5625 165.137 23.5625C165.137 22.3984 165.418 21.3281 165.98 20.3516C166.551 19.375 167.336 18.6016 168.336 18.0312C169.336 17.4531 170.441 17.1641 171.652 17.1641C172.926 17.1641 174.074 17.4297 175.098 17.9609C176.121 18.4922 176.926 19.2578 177.512 20.2578C178.105 21.25 178.402 22.3906 178.402 23.6797V32H179.246Z" fill="url(#paint38_linear)"/>
<path d="M180.934 32V23.6797C180.934 22.3438 180.695 21.1094 180.219 19.9766C179.742 18.8438 179.09 17.8906 178.262 17.1172C177.434 16.3359 176.449 15.7266 175.309 15.2891C174.168 14.8516 172.949 14.6328 171.652 14.6328C170.379 14.6328 169.176 14.8711 168.043 15.3477C166.918 15.8164 165.957 16.4531 165.16 17.2578C164.371 18.0547 163.746 19.0039 163.285 20.1055C162.832 21.1992 162.605 22.3516 162.605 23.5625C162.605 24.6172 162.77 25.6172 163.098 26.5625C163.426 27.5078 163.879 28.3359 164.457 29.0469C165.035 29.75 165.703 30.3633 166.461 30.8867C167.227 31.4023 168.055 31.793 168.945 32.0586C169.844 32.3242 170.766 32.457 171.711 32.457C172.625 32.457 173.516 32.3047 174.383 32V31.1328C173.555 31.4844 172.68 31.6602 171.758 31.6602C170.922 31.6602 170.098 31.5391 169.285 31.2969C168.48 31.0547 167.727 30.6992 167.023 30.2305C166.328 29.7617 165.711 29.207 165.172 28.5664C164.641 27.918 164.219 27.1641 163.906 26.3047C163.602 25.4375 163.449 24.5234 163.449 23.5625C163.449 22.1016 163.809 20.7539 164.527 19.5195C165.246 18.2773 166.234 17.293 167.492 16.5664C168.75 15.8398 170.137 15.4766 171.652 15.4766C173.23 15.4766 174.66 15.8203 175.941 16.5078C177.223 17.1875 178.234 18.1562 178.977 19.4141C179.719 20.6641 180.09 22.0859 180.09 23.6797V32H180.934Z" fill="url(#paint39_linear)"/>
<path d="M186.852 19.8008H186.008V32H186.852V19.8008Z" fill="url(#paint40_linear)"/>
<path d="M182.633 15.125V15.9688H195.289V15.125H182.633Z" fill="url(#paint41_linear)"/>
<path d="M182.633 16.8125V17.6562H195.289V16.8125H182.633Z" fill="url(#paint42_linear)"/>
<path d="M182.633 18.5V19.3438H195.289V18.5H182.633Z" fill="url(#paint43_linear)"/>
<path d="M191.914 19.8008H191.07V32H191.914V19.8008Z" fill="url(#paint44_linear)"/>
<path d="M190.227 19.8008H189.383V32H190.227V19.8008Z" fill="url(#paint45_linear)"/>
<path d="M188.539 19.8008H187.695V32H188.539V19.8008Z" fill="url(#paint46_linear)"/>
<path d="M208.203 21.3594C208.82 21.9062 209.129 22.6797 209.129 23.6797V32H209.973V23.6797C209.973 22.4375 209.582 21.4648 208.801 20.7617C208.027 20.0508 207.012 19.6953 205.754 19.6953C204.613 19.6953 203.664 20.0703 202.906 20.8203C202.148 21.5703 201.77 22.4844 201.77 23.5625C201.77 24.2578 201.887 24.875 202.121 25.4141C202.363 25.9453 202.688 26.3672 203.094 26.6797C203.5 26.9844 203.949 27.2148 204.441 27.3711C204.941 27.5195 205.473 27.5938 206.035 27.5938C206.91 27.5938 207.727 27.3945 208.484 26.9961V26.1523C207.75 26.5898 206.938 26.8086 206.047 26.8086C205.68 26.8086 205.332 26.7734 205.004 26.7031C204.684 26.6328 204.375 26.5195 204.078 26.3633C203.781 26.1992 203.523 25.9961 203.305 25.7539C203.094 25.5039 202.926 25.1953 202.801 24.8281C202.676 24.4531 202.613 24.0312 202.613 23.5625C202.613 22.7344 202.922 22.0234 203.539 21.4297C204.156 20.8359 204.895 20.5391 205.754 20.5391C206.77 20.5391 207.586 20.8125 208.203 21.3594Z" fill="url(#paint47_linear)"/>
<path d="M211.66 32V23.6797C211.66 22.5469 211.402 21.5469 210.887 20.6797C210.371 19.8125 209.668 19.1523 208.777 18.6992C207.887 18.2383 206.879 18.0078 205.754 18.0078C204.152 18.0078 202.805 18.5508 201.711 19.6367C200.625 20.7148 200.082 22.0234 200.082 23.5625C200.082 24.4688 200.242 25.2891 200.562 26.0234C200.883 26.75 201.316 27.3438 201.863 27.8047C202.41 28.2578 203.031 28.6055 203.727 28.8477C204.422 29.082 205.156 29.1992 205.93 29.1992C206.789 29.1992 207.641 29.0234 208.484 28.6719V27.7812C207.68 28.1953 206.832 28.4023 205.941 28.4023C205.285 28.4023 204.66 28.3047 204.066 28.1094C203.48 27.9062 202.949 27.6133 202.473 27.2305C201.996 26.8477 201.617 26.3398 201.336 25.707C201.062 25.0742 200.926 24.3594 200.926 23.5625C200.926 22.25 201.387 21.1367 202.309 20.2227C203.23 19.3086 204.379 18.8516 205.754 18.8516C207.238 18.8516 208.453 19.2891 209.398 20.1641C210.344 21.0312 210.816 22.2031 210.816 23.6797V32H211.66Z" fill="url(#paint48_linear)"/>
<path d="M213.348 32V23.6797C213.348 22.2422 213.016 20.9609 212.352 19.8359C211.688 18.7109 210.777 17.8438 209.621 17.2344C208.473 16.625 207.184 16.3203 205.754 16.3203C204.73 16.3203 203.762 16.5117 202.848 16.8945C201.934 17.2773 201.152 17.793 200.504 18.4414C199.855 19.0898 199.34 19.8594 198.957 20.75C198.582 21.6406 198.395 22.5781 198.395 23.5625C198.395 24.9453 198.734 26.1953 199.414 27.3125C200.094 28.4297 201 29.293 202.133 29.9023C203.266 30.5117 204.508 30.8164 205.859 30.8164C206.719 30.8164 207.594 30.6484 208.484 30.3125V29.457C207.633 29.8242 206.766 30.0078 205.883 30.0078C205.016 30.0078 204.184 29.8633 203.387 29.5742C202.598 29.2773 201.891 28.8633 201.266 28.332C200.648 27.8008 200.156 27.125 199.789 26.3047C199.422 25.4766 199.238 24.5625 199.238 23.5625C199.238 22.3984 199.52 21.3281 200.082 20.3516C200.652 19.375 201.438 18.6016 202.438 18.0312C203.438 17.4531 204.543 17.1641 205.754 17.1641C207.027 17.1641 208.176 17.4297 209.199 17.9609C210.223 18.4922 211.027 19.2578 211.613 20.2578C212.207 21.25 212.504 22.3906 212.504 23.6797V32H213.348Z" fill="url(#paint49_linear)"/>
<path d="M215.035 32V23.6797C215.035 22.3438 214.797 21.1094 214.32 19.9766C213.844 18.8438 213.191 17.8906 212.363 17.1172C211.535 16.3359 210.551 15.7266 209.41 15.2891C208.27 14.8516 207.051 14.6328 205.754 14.6328C204.48 14.6328 203.277 14.8711 202.145 15.3477C201.02 15.8164 200.059 16.4531 199.262 17.2578C198.473 18.0547 197.848 19.0039 197.387 20.1055C196.934 21.1992 196.707 22.3516 196.707 23.5625C196.707 24.6172 196.871 25.6172 197.199 26.5625C197.527 27.5078 197.98 28.3359 198.559 29.0469C199.137 29.75 199.805 30.3633 200.562 30.8867C201.328 31.4023 202.156 31.793 203.047 32.0586C203.945 32.3242 204.867 32.457 205.812 32.457C206.727 32.457 207.617 32.3047 208.484 32V31.1328C207.656 31.4844 206.781 31.6602 205.859 31.6602C205.023 31.6602 204.199 31.5391 203.387 31.2969C202.582 31.0547 201.828 30.6992 201.125 30.2305C200.43 29.7617 199.812 29.207 199.273 28.5664C198.742 27.918 198.32 27.1641 198.008 26.3047C197.703 25.4375 197.551 24.5234 197.551 23.5625C197.551 22.1016 197.91 20.7539 198.629 19.5195C199.348 18.2773 200.336 17.293 201.594 16.5664C202.852 15.8398 204.238 15.4766 205.754 15.4766C207.332 15.4766 208.762 15.8203 210.043 16.5078C211.324 17.1875 212.336 18.1562 213.078 19.4141C213.82 20.6641 214.191 22.0859 214.191 23.6797V32H215.035Z" fill="url(#paint50_linear)"/>
<defs>
<linearGradient id="paint0_linear" x1="214.582" y1="27.9977" x2="-2.41527e-06" y2="27.9977" gradientUnits="userSpaceOnUse">
<stop stop-color="#EB5757"/>
<stop offset="1" stop-color="#F2994A"/>
</linearGradient>
<linearGradient id="paint1_linear" x1="214.582" y1="27.9977" x2="-2.41527e-06" y2="27.9977" gradientUnits="userSpaceOnUse">
<stop stop-color="#EB5757"/>
<stop offset="1" stop-color="#F2994A"/>
</linearGradient>
<linearGradient id="paint2_linear" x1="214.582" y1="27.9977" x2="-2.41527e-06" y2="27.9977" gradientUnits="userSpaceOnUse">
<stop stop-color="#EB5757"/>
<stop offset="1" stop-color="#F2994A"/>
</linearGradient>
<linearGradient id="paint3_linear" x1="214.582" y1="27.9977" x2="-2.41527e-06" y2="27.9977" gradientUnits="userSpaceOnUse">
<stop stop-color="#EB5757"/>
<stop offset="1" stop-color="#F2994A"/>
</linearGradient>
<linearGradient id="paint4_linear" x1="214.582" y1="27.9977" x2="-2.41527e-06" y2="27.9977" gradientUnits="userSpaceOnUse">
<stop stop-color="#EB5757"/>
<stop offset="1" stop-color="#F2994A"/>
</linearGradient>
<linearGradient id="paint5_linear" x1="214.582" y1="27.9977" x2="-2.41527e-06" y2="27.9977" gradientUnits="userSpaceOnUse">
<stop stop-color="#EB5757"/>
<stop offset="1" stop-color="#F2994A"/>
</linearGradient>
<linearGradient id="paint6_linear" x1="214.582" y1="27.9977" x2="-2.41527e-06" y2="27.9977" gradientUnits="userSpaceOnUse">
<stop stop-color="#EB5757"/>
<stop offset="1" stop-color="#F2994A"/>
</linearGradient>
<linearGradient id="paint7_linear" x1="214.582" y1="27.9977" x2="-2.41527e-06" y2="27.9977" gradientUnits="userSpaceOnUse">
<stop stop-color="#EB5757"/>
<stop offset="1" stop-color="#F2994A"/>
</linearGradient>
<linearGradient id="paint8_linear" x1="214.582" y1="27.9977" x2="-2.41527e-06" y2="27.9977" gradientUnits="userSpaceOnUse">
<stop stop-color="#EB5757"/>
<stop offset="1" stop-color="#F2994A"/>
</linearGradient>
<linearGradient id="paint9_linear" x1="214.582" y1="27.9977" x2="-2.41527e-06" y2="27.9977" gradientUnits="userSpaceOnUse">
<stop stop-color="#EB5757"/>
<stop offset="1" stop-color="#F2994A"/>
</linearGradient>
<linearGradient id="paint10_linear" x1="214.582" y1="27.9977" x2="-2.41527e-06" y2="27.9977" gradientUnits="userSpaceOnUse">
<stop stop-color="#EB5757"/>
<stop offset="1" stop-color="#F2994A"/>
</linearGradient>
<linearGradient id="paint11_linear" x1="214.582" y1="27.9977" x2="-2.41527e-06" y2="27.9977" gradientUnits="userSpaceOnUse">
<stop stop-color="#EB5757"/>
<stop offset="1" stop-color="#F2994A"/>
</linearGradient>
<linearGradient id="paint12_linear" x1="214.582" y1="27.9977" x2="-2.41527e-06" y2="27.9977" gradientUnits="userSpaceOnUse">
<stop stop-color="#EB5757"/>
<stop offset="1" stop-color="#F2994A"/>
</linearGradient>
<linearGradient id="paint13_linear" x1="214.582" y1="27.9977" x2="-2.41527e-06" y2="27.9977" gradientUnits="userSpaceOnUse">
<stop stop-color="#EB5757"/>
<stop offset="1" stop-color="#F2994A"/>
</linearGradient>
<linearGradient id="paint14_linear" x1="214.582" y1="27.9977" x2="-2.41527e-06" y2="27.9977" gradientUnits="userSpaceOnUse">
<stop stop-color="#EB5757"/>
<stop offset="1" stop-color="#F2994A"/>
</linearGradient>
<linearGradient id="paint15_linear" x1="214.582" y1="27.9977" x2="-2.41527e-06" y2="27.9977" gradientUnits="userSpaceOnUse">
<stop stop-color="#EB5757"/>
<stop offset="1" stop-color="#F2994A"/>
</linearGradient>
<linearGradient id="paint16_linear" x1="214.582" y1="27.9977" x2="-2.41527e-06" y2="27.9977" gradientUnits="userSpaceOnUse">
<stop stop-color="#EB5757"/>
<stop offset="1" stop-color="#F2994A"/>
</linearGradient>
<linearGradient id="paint17_linear" x1="214.582" y1="27.9977" x2="-2.41527e-06" y2="27.9977" gradientUnits="userSpaceOnUse">
<stop stop-color="#EB5757"/>
<stop offset="1" stop-color="#F2994A"/>
</linearGradient>
<linearGradient id="paint18_linear" x1="214.582" y1="27.9977" x2="-2.41527e-06" y2="27.9977" gradientUnits="userSpaceOnUse">
<stop stop-color="#EB5757"/>
<stop offset="1" stop-color="#F2994A"/>
</linearGradient>
<linearGradient id="paint19_linear" x1="214.582" y1="27.9977" x2="-2.41527e-06" y2="27.9977" gradientUnits="userSpaceOnUse">
<stop stop-color="#EB5757"/>
<stop offset="1" stop-color="#F2994A"/>
</linearGradient>
<linearGradient id="paint20_linear" x1="214.582" y1="27.9977" x2="-2.41527e-06" y2="27.9977" gradientUnits="userSpaceOnUse">
<stop stop-color="#EB5757"/>
<stop offset="1" stop-color="#F2994A"/>
</linearGradient>
<linearGradient id="paint21_linear" x1="214.582" y1="27.9977" x2="-2.41527e-06" y2="27.9977" gradientUnits="userSpaceOnUse">
<stop stop-color="#EB5757"/>
<stop offset="1" stop-color="#F2994A"/>
</linearGradient>
<linearGradient id="paint22_linear" x1="214.582" y1="27.9977" x2="-2.41527e-06" y2="27.9977" gradientUnits="userSpaceOnUse">
<stop stop-color="#EB5757"/>
<stop offset="1" stop-color="#F2994A"/>
</linearGradient>
<linearGradient id="paint23_linear" x1="214.582" y1="27.9977" x2="-2.41527e-06" y2="27.9977" gradientUnits="userSpaceOnUse">
<stop stop-color="#EB5757"/>
<stop offset="1" stop-color="#F2994A"/>
</linearGradient>
<linearGradient id="paint24_linear" x1="214.582" y1="27.9977" x2="-2.41527e-06" y2="27.9977" gradientUnits="userSpaceOnUse">
<stop stop-color="#EB5757"/>
<stop offset="1" stop-color="#F2994A"/>
</linearGradient>
<linearGradient id="paint25_linear" x1="214.582" y1="27.9977" x2="-2.41527e-06" y2="27.9977" gradientUnits="userSpaceOnUse">
<stop stop-color="#EB5757"/>
<stop offset="1" stop-color="#F2994A"/>
</linearGradient>
<linearGradient id="paint26_linear" x1="214.582" y1="27.9977" x2="-2.41527e-06" y2="27.9977" gradientUnits="userSpaceOnUse">
<stop stop-color="#EB5757"/>
<stop offset="1" stop-color="#F2994A"/>
</linearGradient>
<linearGradient id="paint27_linear" x1="214.582" y1="27.9977" x2="-2.41527e-06" y2="27.9977" gradientUnits="userSpaceOnUse">
<stop stop-color="#EB5757"/>
<stop offset="1" stop-color="#F2994A"/>
</linearGradient>
<linearGradient id="paint28_linear" x1="214.582" y1="27.9977" x2="-2.41527e-06" y2="27.9977" gradientUnits="userSpaceOnUse">
<stop stop-color="#EB5757"/>
<stop offset="1" stop-color="#F2994A"/>
</linearGradient>
<linearGradient id="paint29_linear" x1="214.582" y1="27.9977" x2="-2.41527e-06" y2="27.9977" gradientUnits="userSpaceOnUse">
<stop stop-color="#EB5757"/>
<stop offset="1" stop-color="#F2994A"/>
</linearGradient>
<linearGradient id="paint30_linear" x1="214.582" y1="27.9977" x2="-2.41527e-06" y2="27.9977" gradientUnits="userSpaceOnUse">
<stop stop-color="#EB5757"/>
<stop offset="1" stop-color="#F2994A"/>
</linearGradient>
<linearGradient id="paint31_linear" x1="214.582" y1="27.9977" x2="-2.41527e-06" y2="27.9977" gradientUnits="userSpaceOnUse">
<stop stop-color="#EB5757"/>
<stop offset="1" stop-color="#F2994A"/>
</linearGradient>
<linearGradient id="paint32_linear" x1="214.582" y1="27.9977" x2="-2.41527e-06" y2="27.9977" gradientUnits="userSpaceOnUse">
<stop stop-color="#EB5757"/>
<stop offset="1" stop-color="#F2994A"/>
</linearGradient>
<linearGradient id="paint33_linear" x1="214.582" y1="27.9977" x2="-2.41527e-06" y2="27.9977" gradientUnits="userSpaceOnUse">
<stop stop-color="#EB5757"/>
<stop offset="1" stop-color="#F2994A"/>
</linearGradient>
<linearGradient id="paint34_linear" x1="214.582" y1="27.9977" x2="-2.41527e-06" y2="27.9977" gradientUnits="userSpaceOnUse">
<stop stop-color="#EB5757"/>
<stop offset="1" stop-color="#F2994A"/>
</linearGradient>
<linearGradient id="paint35_linear" x1="214.582" y1="27.9977" x2="-2.41527e-06" y2="27.9977" gradientUnits="userSpaceOnUse">
<stop stop-color="#EB5757"/>
<stop offset="1" stop-color="#F2994A"/>
</linearGradient>
<linearGradient id="paint36_linear" x1="214.582" y1="27.9977" x2="-2.41527e-06" y2="27.9977" gradientUnits="userSpaceOnUse">
<stop stop-color="#EB5757"/>
<stop offset="1" stop-color="#F2994A"/>
</linearGradient>
<linearGradient id="paint37_linear" x1="214.582" y1="27.9977" x2="-2.41527e-06" y2="27.9977" gradientUnits="userSpaceOnUse">
<stop stop-color="#EB5757"/>
<stop offset="1" stop-color="#F2994A"/>
</linearGradient>
<linearGradient id="paint38_linear" x1="214.582" y1="27.9977" x2="-2.41527e-06" y2="27.9977" gradientUnits="userSpaceOnUse">
<stop stop-color="#EB5757"/>
<stop offset="1" stop-color="#F2994A"/>
</linearGradient>
<linearGradient id="paint39_linear" x1="214.582" y1="27.9977" x2="-2.41527e-06" y2="27.9977" gradientUnits="userSpaceOnUse">
<stop stop-color="#EB5757"/>
<stop offset="1" stop-color="#F2994A"/>
</linearGradient>
<linearGradient id="paint40_linear" x1="214.582" y1="27.9977" x2="-2.41527e-06" y2="27.9977" gradientUnits="userSpaceOnUse">
<stop stop-color="#EB5757"/>
<stop offset="1" stop-color="#F2994A"/>
</linearGradient>
<linearGradient id="paint41_linear" x1="214.582" y1="27.9977" x2="-2.41527e-06" y2="27.9977" gradientUnits="userSpaceOnUse">
<stop stop-color="#EB5757"/>
<stop offset="1" stop-color="#F2994A"/>
</linearGradient>
<linearGradient id="paint42_linear" x1="214.582" y1="27.9977" x2="-2.41527e-06" y2="27.9977" gradientUnits="userSpaceOnUse">
<stop stop-color="#EB5757"/>
<stop offset="1" stop-color="#F2994A"/>
</linearGradient>
<linearGradient id="paint43_linear" x1="214.582" y1="27.9977" x2="-2.41527e-06" y2="27.9977" gradientUnits="userSpaceOnUse">
<stop stop-color="#EB5757"/>
<stop offset="1" stop-color="#F2994A"/>
</linearGradient>
<linearGradient id="paint44_linear" x1="214.582" y1="27.9977" x2="-2.41527e-06" y2="27.9977" gradientUnits="userSpaceOnUse">
<stop stop-color="#EB5757"/>
<stop offset="1" stop-color="#F2994A"/>
</linearGradient>
<linearGradient id="paint45_linear" x1="214.582" y1="27.9977" x2="-2.41527e-06" y2="27.9977" gradientUnits="userSpaceOnUse">
<stop stop-color="#EB5757"/>
<stop offset="1" stop-color="#F2994A"/>
</linearGradient>
<linearGradient id="paint46_linear" x1="214.582" y1="27.9977" x2="-2.41527e-06" y2="27.9977" gradientUnits="userSpaceOnUse">
<stop stop-color="#EB5757"/>
<stop offset="1" stop-color="#F2994A"/>
</linearGradient>
<linearGradient id="paint47_linear" x1="214.582" y1="27.9977" x2="-2.41527e-06" y2="27.9977" gradientUnits="userSpaceOnUse">
<stop stop-color="#EB5757"/>
<stop offset="1" stop-color="#F2994A"/>
</linearGradient>
<linearGradient id="paint48_linear" x1="214.582" y1="27.9977" x2="-2.41527e-06" y2="27.9977" gradientUnits="userSpaceOnUse">
<stop stop-color="#EB5757"/>
<stop offset="1" stop-color="#F2994A"/>
</linearGradient>
<linearGradient id="paint49_linear" x1="214.582" y1="27.9977" x2="-2.41527e-06" y2="27.9977" gradientUnits="userSpaceOnUse">
<stop stop-color="#EB5757"/>
<stop offset="1" stop-color="#F2994A"/>
</linearGradient>
<linearGradient id="paint50_linear" x1="214.582" y1="27.9977" x2="-2.41527e-06" y2="27.9977" gradientUnits="userSpaceOnUse">
<stop stop-color="#EB5757"/>
<stop offset="1" stop-color="#F2994A"/>
</linearGradient>
</defs>
</svg>
