<svg width="28" height="22" viewBox="0 0 28 22" fill="none" xmlns="http://www.w3.org/2000/svg">
<path d="M0 17.9998C0 18.8249 0.327777 19.6162 0.911223 20.1997C1.49467 20.7831 2.28599 21.1109 3.11111 21.1109H24.8889C25.714 21.1109 26.5053 20.7831 27.0888 20.1997C27.6722 19.6162 28 18.8249 28 17.9998V14.8887H0V17.9998Z" fill="#138808"/>
<path d="M0 7.11084H28V14.8886H0V7.11084Z" fill="#EEEEEE"/>
<path d="M28 7.11089V3.99978C28 3.17467 27.6722 2.38334 27.0888 1.7999C26.5053 1.21645 25.714 0.888672 24.8889 0.888672H3.11111C2.28599 0.888672 1.49467 1.21645 0.911223 1.7999C0.327777 2.38334 0 3.17467 0 3.99978L0 7.11089H28Z" fill="#FF9933"/>
<path d="M13.9998 14.1109C15.718 14.1109 17.1109 12.718 17.1109 10.9998C17.1109 9.28156 15.718 7.88867 13.9998 7.88867C12.2816 7.88867 10.8887 9.28156 10.8887 10.9998C10.8887 12.718 12.2816 14.1109 13.9998 14.1109Z" fill="#000080"/>
<path d="M14.0001 13.3332C15.2887 13.3332 16.3334 12.2885 16.3334 10.9998C16.3334 9.71117 15.2887 8.6665 14.0001 8.6665C12.7114 8.6665 11.6667 9.71117 11.6667 10.9998C11.6667 12.2885 12.7114 13.3332 14.0001 13.3332Z" fill="#EEEEEE"/>
<path d="M14.0001 8.6665L14.1136 10.4274L14.8922 8.84462L14.3244 10.5145L15.6497 9.34939L14.4854 10.6755L16.1553 10.1069L14.5725 10.8863L16.3334 10.9998L14.5725 11.1134L16.1553 11.8919L14.4854 11.3242L15.6497 12.6495L14.3244 11.4852L14.8922 13.1551L14.1136 11.5723L14.0001 13.3332L13.8865 11.5723L13.1072 13.1551L13.6757 11.4852L12.3496 12.6495L13.5147 11.3242L11.8449 11.8919L13.4276 11.1134L11.6667 10.9998L13.4276 10.8863L11.8449 10.1069L13.5147 10.6755L12.3496 9.34939L13.6757 10.5145L13.1072 8.84462L13.8865 10.4274L14.0001 8.6665Z" fill="#6666B3"/>
<path d="M14.0002 11.7777C14.4297 11.7777 14.778 11.4295 14.778 10.9999C14.778 10.5704 14.4297 10.2222 14.0002 10.2222C13.5706 10.2222 13.2224 10.5704 13.2224 10.9999C13.2224 11.4295 13.5706 11.7777 14.0002 11.7777Z" fill="#000080"/>
</svg>
